<?xml version="1.0" standalone="no"?>
<!DOCTYPE svg PUBLIC "-//W3C//DTD SVG 20010904//EN"
 "http://www.w3.org/TR/2001/REC-SVG-20010904/DTD/svg10.dtd">
<svg version="1.0" xmlns="http://www.w3.org/2000/svg"
 width="593.000000pt" height="575.000000pt" viewBox="0 0 593.000000 575.000000"
 preserveAspectRatio="xMidYMid meet">
<metadata>
Created by potrace 1.16, written by Peter Selinger 2001-2019
</metadata>
<g transform="translate(0.000000,575.000000) scale(0.100000,-0.100000)"
fill="#000000" stroke="none">
<path d="M2615 5204 c-153 -395 -203 -514 -215 -510 -8 2 -273 115 -589 250
-316 136 -575 245 -576 244 -2 -2 73 -298 165 -658 114 -445 164 -657 156
-661 -6 -4 -280 -69 -609 -145 -328 -76 -596 -142 -595 -146 2 -4 185 -156
408 -338 223 -183 416 -342 429 -355 l23 -23 -366 -418 c-201 -230 -366 -422
-366 -426 0 -4 21 -8 48 -8 96 -1 1191 -76 1197 -82 4 -3 -19 -300 -50 -659
-31 -359 -55 -663 -53 -676 3 -20 56 11 528 313 289 185 530 338 537 341 7 3
125 -186 289 -461 153 -256 281 -466 285 -466 3 0 97 231 209 512 111 282 204
514 205 515 1 2 268 -110 594 -248 327 -137 597 -249 601 -247 4 2 -69 295
-162 652 -116 441 -166 651 -159 655 6 4 276 68 600 141 324 74 587 138 585
142 -3 4 -198 168 -434 363 l-430 356 123 141 c638 735 628 723 599 729 -15 4
-292 22 -615 40 -323 18 -593 36 -599 40 -7 5 8 206 50 670 33 365 59 665 57
667 -1 1 -244 -150 -540 -338 -295 -187 -541 -338 -545 -335 -5 3 -136 217
-292 475 -155 259 -285 470 -288 470 -3 0 -95 -232 -205 -516z m970 -769 c92
-154 173 -285 179 -292 7 -8 109 -17 296 -29 157 -9 287 -18 289 -20 4 -4 -24
-368 -35 -454 -4 -35 -4 -35 265 -255 148 -121 269 -223 268 -227 -1 -3 -96
-116 -212 -250 -115 -134 -215 -250 -222 -259 -10 -12 -1 -59 47 -244 33 -126
57 -232 53 -235 -5 -4 -136 -35 -293 -71 l-285 -63 -130 -329 c-72 -181 -133
-331 -137 -333 -4 -3 -115 41 -247 97 -147 62 -247 99 -258 95 -9 -4 -114 -70
-234 -146 -119 -77 -221 -140 -226 -140 -4 0 -92 141 -195 314 l-187 312 -288
18 c-158 10 -288 19 -289 20 -1 0 7 91 17 201 10 110 18 217 19 237 0 36 -5
41 -270 258 -149 122 -270 225 -270 229 0 3 104 124 231 269 l230 262 -59 230
c-52 201 -58 230 -43 234 9 3 135 32 281 66 146 33 268 64 272 68 4 4 64 153
133 332 70 179 130 328 133 332 4 4 120 -42 259 -102 l252 -108 233 148 c202
128 234 145 244 131 6 -9 87 -142 179 -296z"/>
</g>
</svg>
